<svg width="35" height="32" viewBox="0 0 35 32" fill="none" xmlns="http://www.w3.org/2000/svg">
<path d="M31 26H4C1.79086 26 0 27.3431 0 29C0 30.6569 1.79086 32 4 32H31C33.2091 32 35 30.6569 35 29C35 27.3431 33.2091 26 31 26Z" fill="#F5E6C1"/>
<path d="M31 0H4C1.79086 0 0 1.34315 0 3C0 4.65685 1.79086 6 4 6H31C33.2091 6 35 4.65685 35 3C35 1.34315 33.2091 0 31 0Z" fill="#F5E6C1"/>
<path d="M31 13H4C1.79086 13 0 14.3431 0 16C0 17.6569 1.79086 19 4 19H31C33.2091 19 35 17.6569 35 16C35 14.3431 33.2091 13 31 13Z" fill="#F5E6C1"/>
</svg>
