<svg width="23" height="25" viewBox="0 0 23 25" fill="none" xmlns="http://www.w3.org/2000/svg">
<path d="M2.4999 25H19.9992C20.6622 25 21.2981 24.7366 21.7669 24.2678C22.2357 23.799 22.4991 23.1631 22.4991 22.5001V11.2505C22.5001 11.086 22.4685 10.923 22.4063 10.7707C22.3441 10.6184 22.2525 10.4799 22.1366 10.3631L12.137 0.363476C11.9028 0.130672 11.586 0 11.2558 0C10.9256 0 10.6088 0.130672 10.3746 0.363476L0.374985 10.3631C0.25688 10.4788 0.162921 10.6169 0.0985527 10.7692C0.0341845 10.9216 0.000686535 11.0852 0 11.2505V22.5001C0 23.1631 0.263382 23.799 0.732204 24.2678C1.20103 24.7366 1.83689 25 2.4999 25ZM8.74965 22.5001V16.2503H13.7495V22.5001H8.74965ZM2.4999 11.763L11.2496 3.01337L19.9992 11.763V22.5001H16.2494V16.2503C16.2494 15.5873 15.986 14.9515 15.5172 14.4826C15.0483 14.0138 14.4125 13.7504 13.7495 13.7504H8.74965C8.08664 13.7504 7.45078 14.0138 6.98196 14.4826C6.51313 14.9515 6.24975 15.5873 6.24975 16.2503V22.5001H2.4999V11.763Z" fill="#F5E6C1"/>
</svg>
