<svg width="92" height="25" viewBox="0 0 92 25" fill="none" xmlns="http://www.w3.org/2000/svg">
<path fill-rule="evenodd" clip-rule="evenodd" d="M21.8022 19.8163C21.2525 20.0577 20.7138 20.1784 20.186 20.1784C19.6363 20.1784 19.1525 20.0358 18.7347 19.7505C18.3389 19.4432 17.8332 18.8837 17.2175 18.0717L11.7092 10.5994L17.2175 4.24635C17.5473 3.85134 17.9101 3.59898 18.3059 3.48925C18.7237 3.37953 38.0426 3.32487 38.8782 3.32487H40.0656C40.4834 3.45653 40.7473 3.59908 40.8573 3.75269C40.9672 3.88436 41.0222 4.15867 41.0222 4.57563V19.1251C41.0222 19.5421 40.9672 19.8274 40.8573 19.981C40.7473 20.1127 40.4834 20.2443 40.0656 20.376L38.8782 20.771V23.7007H48.5424V20.771L46.7613 20.4089C46.3655 20.3431 46.1017 20.2334 45.9697 20.0798C45.8378 19.9042 45.7718 19.597 45.7718 19.1581V13.8913C46.3215 13.8913 46.7833 14.012 47.1571 14.2534C47.531 14.4728 47.8718 14.8569 48.1796 15.4055L51.412 20.771C52.0277 21.8024 52.7534 22.6034 53.589 23.174C54.4465 23.7446 55.3701 24.0299 56.3596 24.0299C57.1952 24.0299 58.0967 23.7775 59.0643 23.2728L59.46 19.8823C59.1082 20.0578 58.6574 20.1456 58.1077 20.1456C57.514 20.1456 57.0302 20.0249 56.6564 19.7835C56.2826 19.5202 55.8868 19.0703 55.469 18.4339L53.424 15.3067C52.9183 14.5606 52.4455 13.9791 52.0057 13.5621C51.5879 13.1232 51.1372 12.8269 50.6534 12.6733C52.4125 12.4319 53.8308 11.7187 54.9083 10.5337C56.0078 9.34866 56.5575 7.88932 56.5575 6.15567C56.5575 4.07089 55.8758 2.52377 54.5125 1.5143C53.1712 0.504835 51.1372 0.000100456 48.4105 0.000100456L18.141 0C16.5138 0 15.2934 0.482789 14.4798 1.44837L6.89359 10.369V4.54261C6.89359 4.10371 6.94856 3.80745 7.05851 3.65384C7.19044 3.50022 7.45431 3.37953 7.85012 3.29175L9.46632 2.92965V0H0V2.92965L1.18741 3.32466C1.58322 3.45633 1.83609 3.59898 1.94604 3.75259C2.07797 3.90621 2.14394 4.18052 2.14394 4.57553V19.125C2.14394 19.5201 2.07797 19.7944 1.94604 19.948C1.83609 20.1016 1.58322 20.2442 1.18741 20.3759L0 20.7709V23.7006H9.46632V20.7709L7.85012 20.4088C7.45431 20.321 7.19044 20.2004 7.05851 20.0467C6.94856 19.8931 6.89359 19.5969 6.89359 19.158V11.5869L13.0286 20.3759C13.9301 21.6926 14.7877 22.6362 15.6013 23.2068C16.4369 23.7554 17.3824 24.0298 18.4379 24.0298C19.6693 24.0298 20.6918 23.7664 21.5054 23.2397L21.8022 19.8163ZM48.1466 10.402C49.2901 10.402 50.1367 10.1277 50.6864 9.57908C51.2361 9.03046 51.511 8.17461 51.511 7.01152C51.511 5.89233 51.2361 5.04744 50.6864 4.47688C50.1586 3.88436 49.3011 3.58811 48.1137 3.58811H45.7718V10.402H48.1466Z" fill="#F5E6C1"/>
<path d="M37.6493 8.12239V5.92514H30.9454V8.0977L31.8854 8.34458C32.1493 8.41041 32.3225 8.47625 32.4049 8.54208C32.4874 8.60792 32.5286 8.69844 32.5286 8.81365C32.5286 8.96178 32.4874 9.14283 32.4049 9.35679L29.9311 14.3932L27.4326 9.35679C27.3502 9.1922 27.3089 9.01939 27.3089 8.83834C27.3089 8.72313 27.3419 8.63261 27.4079 8.56677C27.4739 8.48448 27.6388 8.41864 27.9027 8.36927L28.7685 8.0977V5.92514H21.5203V8.12239L22.3119 8.31989C22.5758 8.38573 22.7819 8.49271 22.9304 8.64084C23.0953 8.77251 23.2684 9.01116 23.4499 9.35679L27.8284 17.7507V20.2689C27.8284 20.5981 27.779 20.8203 27.68 20.9355C27.5976 21.0343 27.4079 21.1248 27.111 21.2071L25.8742 21.5033V23.7006H33.345V21.5033L32.1081 21.2071C31.8112 21.1248 31.6133 21.0343 31.5144 20.9355C31.4319 20.8203 31.3907 20.5981 31.3907 20.2689V17.7754L35.695 9.35679C35.8929 8.9947 36.0579 8.75605 36.1898 8.64084C36.3382 8.50917 36.5856 8.40218 36.9319 8.31989L37.6493 8.12239Z" fill="#F5E6C1"/>
<path fill-rule="evenodd" clip-rule="evenodd" d="M61.277 21.2072L60.3617 21.5035V23.7007H77.6521V20.7711L75.9369 20.3761C75.5411 20.2663 75.2773 20.1456 75.1453 20.014C75.0354 19.8603 74.9804 19.5641 74.9804 19.1252V9.08536L74.6176 7.4724L75.5741 8.92077L85.5352 23.7007H89.8561V4.54275C89.8561 4.10385 89.922 3.80759 90.054 3.65398C90.1859 3.47842 90.4498 3.33578 90.8456 3.22605L92 2.92979V0.000139697H83.2593V2.92979L84.9745 3.22605C85.3703 3.31383 85.6232 3.4455 85.7331 3.62106C85.843 3.77468 85.898 4.0819 85.898 4.54275V14.7472L86.3928 16.6564L85.4033 14.8459L75.3432 0.000139697H60.3617V2.35384L61.277 2.6501C61.5738 2.73239 61.7635 2.83937 61.846 2.97104C61.9449 3.08625 61.9944 3.29199 61.9944 3.58824V20.2691C61.9944 20.5653 61.9449 20.7793 61.846 20.911C61.7635 21.0262 61.5738 21.1249 61.277 21.2072ZM67.1865 3.09306C66.7207 3.29968 66.4206 3.76069 66.4206 4.26943V19.3313C66.4206 19.8401 66.7207 20.3011 67.1865 20.5077L68.1805 20.9487C68.2917 20.998 68.4186 20.998 68.5297 20.9487L69.5238 20.5077C69.9896 20.3011 70.2897 19.8401 70.2897 19.3313V4.26943C70.2897 3.76069 69.9896 3.29968 69.5238 3.09306L68.5297 2.65208C68.4186 2.60277 68.2917 2.60277 68.1805 2.65208L67.1865 3.09306Z" fill="#F5E6C1"/>
</svg>
