<svg width="18" height="25" viewBox="0 0 18 25" fill="none" xmlns="http://www.w3.org/2000/svg">
<path d="M8.75 25C13.5737 25 17.5 21.0737 17.5 16.25C17.5 11.4263 13.5737 7.5 8.75 7.5C3.925 7.5 0 11.4263 0 16.25C0 21.0737 3.925 25 8.75 25ZM8.75 10C12.1962 10 15 12.8038 15 16.25C15 19.6963 12.1962 22.5 8.75 22.5C5.30375 22.5 2.5 19.6963 2.5 16.25C2.5 12.8038 5.30375 10 8.75 10ZM7.5 0H2.5V6.8975C3.99585 5.89653 5.71097 5.27094 7.5 5.07375V0ZM15 0H10V5.07375C11.789 5.27094 13.5042 5.89653 15 6.8975V0Z" fill="#F5E6C1"/>
<path d="M6.27389 17.2637L5.68889 20.6713L8.75014 19.0625L11.8114 20.6713L11.2264 17.2637L13.7039 14.8487L10.2814 14.3512L8.75014 11.25L7.21889 14.3512L3.79639 14.8487L6.27389 17.2637Z" fill="#F5E6C1"/>
</svg>
