<?xml version="1.0" encoding="utf-8"?>
<!-- Generator: Adobe Illustrator 27.5.0, SVG Export Plug-In . SVG Version: 6.00 Build 0)  -->
<svg version="1.1" xmlns="http://www.w3.org/2000/svg" xmlns:xlink="http://www.w3.org/1999/xlink" x="0px" y="0px"
	 viewBox="0 0 500 500" style="enable-background:new 0 0 500 500;" xml:space="preserve">
<g id="BACKGROUND">
	<g style="opacity:0.15;">
		<g>
			<path style="fill:#1681A8;" d="M437.389,356.055c-17.632,16.139-43.048,22.827-66.575,21.805
				c-13.035-0.571-26.632-3.058-38.737,1.815c-3.749,1.511-7.102,3.574-10.207,5.997c-11.736,9.148-19.833,23.399-31.689,32.297
				c-23.509,17.669-54.996,25.628-85.23,23.353c-18.203-1.373-35.964-6.467-51.265-15.403c-9.249-5.389-17.604-12.206-24.615-20.451
				c-5.085-5.979-9.47-12.722-12.971-20.239c-1.022-2.193-1.971-4.468-2.846-6.798c-2.248-5.997-3.556-12.151-4.21-18.36
				c-0.811-7.545-0.691-15.2-0.166-22.837c0.359-5.398,0.921-10.797,1.474-16.149c0.829-7.867,1.796-15.928,2.46-23.997
				c1.29-15.605,1.511-31.247-2.294-45.664c-0.396-1.502-0.829-2.994-1.317-4.468c-3.427-10.382-9.194-20.036-18.47-28.428
				c-0.461-0.424-0.921-0.82-1.391-1.216c-6.366-5.49-13.588-9.903-20.451-14.785c-1.492-1.059-2.957-2.128-4.385-3.233
				c-5.748-4.44-9.995-9.304-12.971-14.445c-3.473-6.015-5.205-12.399-5.509-18.921c-1.161-23.657,16.232-49.073,35.89-64.825
				c20.082-16.084,45.434-21.298,66.105-9.507c5.232,2.976,10.152,7.038,14.619,12.289c0.147,0.175,0.295,0.35,0.442,0.516
				c5.085,6.108,8.65,13.431,13.772,19.447c0.838,1.013,1.75,1.981,2.699,2.911c5.638,5.444,13.201,8.705,21.003,9.488l0.009,0.009
				c6.495,0.663,13.164-0.387,19.014-3.279c16.536-8.189,24.209-27.765,38.856-38.902l1.778-1.308l0.074-0.046
				c14.03-9.581,32.463-9.931,49.192-6.964c5.232,0.93,10.483,2.211,15.605,3.869c15.034,4.818,29.147,12.759,39.584,23.896
				c4.965,5.315,9.083,11.34,12.077,18.102c1.17,2.662,2.156,5.453,2.846,8.309c1.391,5.804,1.575,11.847-0.304,17.457
				c-1.207,3.593-3.141,6.771-5.463,9.7c-4.431,5.536-10.317,10.207-15.449,15.218c-7.858,7.655-14.712,18.903-10.658,29.101
				c0.516,1.29,1.179,2.496,1.962,3.602c3.114,4.486,8.07,7.683,12.842,10.548c2.469,1.492,4.975,2.911,7.517,4.302
				c10.115,5.555,20.7,10.474,31.063,15.762c13.634,6.937,26.871,14.509,38.147,24.955c0.323,0.276,0.645,0.571,0.949,0.866
				c11.073,10.502,16.803,23.564,17.595,36.885C458.826,325.406,451.742,342.918,437.389,356.055z"/>
		</g>
		<g>
			<g>
				<circle style="fill:#1681A8;" cx="402.17" cy="197.929" r="7.45"/>
				<path style="fill:#1681A8;" d="M409.619,218.175c0,2.057-1.668,3.725-3.725,3.725c-2.057,0-3.725-1.668-3.725-3.725
					c0-2.057,1.668-3.725,3.725-3.725C407.952,214.45,409.619,216.118,409.619,218.175z"/>
				<path style="fill:#1681A8;" d="M420.616,204.126c2.236,1.291,3.002,4.15,1.711,6.386c-1.291,2.236-4.15,3.002-6.386,1.711
					c-2.236-1.291-3.002-4.15-1.711-6.385C415.521,203.601,418.38,202.835,420.616,204.126z"/>
			</g>
			<g>
				
					<ellipse transform="matrix(0.7569 -0.6535 0.6535 0.7569 -128.9311 86.6426)" style="fill:#1681A8;" cx="52.001" cy="216.633" rx="10.142" ry="10.142"/>
				<path style="fill:#1681A8;" d="M62.143,244.196c0,2.801-2.27,5.071-5.071,5.071c-2.801,0-5.071-2.27-5.071-5.071
					c0-2.801,2.27-5.071,5.071-5.071C59.872,239.125,62.143,241.395,62.143,244.196z"/>
				<path style="fill:#1681A8;" d="M77.114,225.069c3.044,1.758,4.087,5.65,2.329,8.694c-1.757,3.044-5.65,4.087-8.693,2.329
					c-3.044-1.757-4.087-5.65-2.33-8.694C70.178,224.354,74.07,223.311,77.114,225.069z"/>
			</g>
			<g>
				
					<ellipse transform="matrix(0.1602 -0.9871 0.9871 0.1602 83.7795 236.0984)" style="fill:#1681A8;" cx="180.64" cy="68.814" rx="10.142" ry="10.142"/>
				<path style="fill:#1681A8;" d="M190.782,96.377c0,2.801-2.27,5.071-5.071,5.071c-2.801,0-5.071-2.27-5.071-5.071
					c0-2.801,2.27-5.071,5.071-5.071C188.512,91.306,190.782,93.576,190.782,96.377z"/>
				<path style="fill:#1681A8;" d="M205.753,77.25c3.044,1.757,4.087,5.649,2.329,8.693c-1.757,3.044-5.65,4.087-8.693,2.329
					c-3.044-1.757-4.087-5.649-2.33-8.693C198.817,76.535,202.709,75.492,205.753,77.25z"/>
			</g>
			<g>
				
					<ellipse transform="matrix(0.1622 -0.9868 0.9868 0.1622 -101.5879 682.2302)" style="fill:#1681A8;" cx="350.971" cy="400.94" rx="10.142" ry="10.142"/>
				<path style="fill:#1681A8;" d="M361.113,428.503c0,2.801-2.27,5.071-5.071,5.071c-2.801,0-5.071-2.27-5.071-5.071
					c0-2.801,2.27-5.071,5.071-5.071C358.842,423.432,361.113,425.702,361.113,428.503z"/>
				<path style="fill:#1681A8;" d="M376.084,409.376c3.044,1.757,4.087,5.65,2.329,8.694c-1.757,3.044-5.65,4.087-8.694,2.329
					c-3.044-1.757-4.087-5.649-2.329-8.693C369.148,408.662,373.04,407.619,376.084,409.376z"/>
			</g>
		</g>
	</g>
</g>
<g id="OBJECTS">
	<ellipse style="fill:#E6E6E6;" cx="251.286" cy="385.77" rx="140.533" ry="11.766"/>
	<linearGradient id="SVGID_1_" gradientUnits="userSpaceOnUse" x1="335.0307" y1="395.6983" x2="327.7255" y2="244.7229">
		<stop  offset="0" style="stop-color:#8495B8"/>
		<stop  offset="0.1493" style="stop-color:#B2BDD3"/>
		<stop  offset="0.306" style="stop-color:#DCE1EB"/>
		<stop  offset="0.4294" style="stop-color:#F5F7F9"/>
		<stop  offset="0.5032" style="stop-color:#FFFFFF"/>
		<stop  offset="1" style="stop-color:#8495B8"/>
	</linearGradient>
	<path style="fill:url(#SVGID_1_);" d="M355.331,245.511v144.601c0,3.003-2.718,5.288-5.675,4.753l-38.212-6.817l-0.105-0.019
		c-2.604-0.464-4.501-2.728-4.501-5.373v-132.54h4.606v133.252l39.28,7.01V250.117h-39.28v-4.606H355.331z"/>
	<g>
		<g>
			
				<linearGradient id="SVGID_00000167359335395035961740000008214304144926940311_" gradientUnits="userSpaceOnUse" x1="196.4411" y1="328.9897" x2="212.8815" y2="328.9897">
				<stop  offset="0.0045" style="stop-color:#27345C"/>
				<stop  offset="0.0468" style="stop-color:#2D3A62"/>
				<stop  offset="0.3299" style="stop-color:#536287"/>
				<stop  offset="0.59" style="stop-color:#6E7EA2"/>
				<stop  offset="0.8168" style="stop-color:#7E8FB2"/>
				<stop  offset="0.9849" style="stop-color:#8495B8"/>
			</linearGradient>
			
				<rect x="197.405" y="285.873" style="fill:url(#SVGID_00000167359335395035961740000008214304144926940311_);" width="15.161" height="86.233"/>
			
				<linearGradient id="SVGID_00000097463129245923209370000017637252381573313939_" gradientUnits="userSpaceOnUse" x1="205.0606" y1="371.5564" x2="205.0606" y2="382.26">
				<stop  offset="0.0045" style="stop-color:#27345C"/>
				<stop  offset="0.0468" style="stop-color:#2D3A62"/>
				<stop  offset="0.3299" style="stop-color:#536287"/>
				<stop  offset="0.59" style="stop-color:#6E7EA2"/>
				<stop  offset="0.8168" style="stop-color:#7E8FB2"/>
				<stop  offset="0.9849" style="stop-color:#8495B8"/>
			</linearGradient>
			<path style="fill:url(#SVGID_00000097463129245923209370000017637252381573313939_);" d="M235.674,379.653h-61.226v0
				c0-4.168,3.379-7.547,7.547-7.547h46.133C232.295,372.106,235.674,375.485,235.674,379.653L235.674,379.653z"/>
			
				<linearGradient id="SVGID_00000096060276632085212800000001032967793341816459_" gradientUnits="userSpaceOnUse" x1="187.5354" y1="274.0021" x2="187.5354" y2="141.8089">
				<stop  offset="0.2616" style="stop-color:#CF4434"/>
				<stop  offset="0.3636" style="stop-color:#D76745"/>
				<stop  offset="0.4836" style="stop-color:#DF8955"/>
				<stop  offset="0.6066" style="stop-color:#E5A362"/>
				<stop  offset="0.7319" style="stop-color:#EAB66B"/>
				<stop  offset="0.8611" style="stop-color:#ECC170"/>
				<stop  offset="1" style="stop-color:#EDC572"/>
			</linearGradient>
			<path style="fill:url(#SVGID_00000096060276632085212800000001032967793341816459_);" d="M233.809,251.122
				c0,25.183-12.622,24.955-45.135,24.955c-33.355,0-45.837,0.228-45.837-24.955c0-25.174-14.718-105.72,45.837-105.72
				c47,0,41.659,49.341,44.169,77.737c0.325,3.634,0.535,7.163,0.676,10.524C233.809,240.413,233.809,246.461,233.809,251.122z"/>
			
				<linearGradient id="SVGID_00000093136328807937611840000006105088564373645234_" gradientUnits="userSpaceOnUse" x1="202.2019" y1="302.0988" x2="202.2019" y2="262.6778">
				<stop  offset="0.2616" style="stop-color:#CF4434"/>
				<stop  offset="1" style="stop-color:#EDC572"/>
			</linearGradient>
			<path style="fill:url(#SVGID_00000093136328807937611840000006105088564373645234_);" d="M246.068,288.082h-87.732
				c-5.849,0-10.634-3.994-10.634-8.875l0,0c0-4.881,4.785-8.875,10.634-8.875h87.732c5.849,0,10.634,3.994,10.634,8.875l0,0
				C256.702,284.089,251.917,288.082,246.068,288.082z"/>
			<g>
				<path style="fill:#27345C;" d="M232.861,223.138c-0.009,0-0.009,0-0.018,0c0.325,3.634,0.535,7.163,0.676,10.524h0.079
					c7.628,0,13.842,6.206,13.842,13.842v21.988c0,2.905,2.361,5.267,5.267,5.267c1.457,0,2.774-0.588,3.722-1.545
					c0.957-0.948,1.545-2.265,1.545-3.722v-21.988C257.974,233.821,246.633,222.734,232.861,223.138z"/>
			</g>
		</g>
		<g>
			<path style="fill:#FFFFFF;" d="M223.592,188.517c-5.472-1.391-10.672-4.154-15.536-5.822
				c-5.518-1.916-12.777-5.417-16.628-10.327c-5.002-6.393-0.691-13.321,3.584-13.735c4.661-0.451,11.57,1.944,16.057,3.63
				c3.666,1.382,7.268,2.975,10.787,4.717c2.377,1.161,4.707,2.395,7.02,3.694C226.149,174.506,223.353,181.746,223.592,188.517z"/>
			<g>
				
					<linearGradient id="SVGID_00000065037303767464840320000000387191652013013672_" gradientUnits="userSpaceOnUse" x1="291.133" y1="364.6313" x2="246.301" y2="244.2605">
					<stop  offset="0" style="stop-color:#29A9E0"/>
					<stop  offset="0.9774" style="stop-color:#305883"/>
				</linearGradient>
				<polygon style="fill:url(#SVGID_00000065037303767464840320000000387191652013013672_);" points="266.785,263.099 
					287.871,365.552 279.473,369.484 244.301,274.927 				"/>
				<path style="fill:#305883;" d="M279.473,369.484l8.398-3.932l5.115,4.032c0,0,21.349-17.866,29.747-9.123l-35.906,20.85
					c-2.479,0.775-5.085-0.761-5.607-3.306L279.473,369.484z"/>
			</g>
			<g>
				
					<linearGradient id="SVGID_00000126295584604266834940000013721005280530220476_" gradientUnits="userSpaceOnUse" x1="194.0527" y1="380.8185" x2="223.9918" y2="248.1651">
					<stop  offset="0" style="stop-color:#29A9E0"/>
					<stop  offset="0.4163" style="stop-color:#2C87B8"/>
					<stop  offset="0.9774" style="stop-color:#305883"/>
				</linearGradient>
				<path style="fill:url(#SVGID_00000126295584604266834940000013721005280530220476_);" d="M190.7,241.336l52.312,4.004
					c19.658,1.937,33.302,20.483,29.295,39.826c-7.43,35.862-17.7,85.576-17.7,86.381c0,1.26-8.925,0-8.925,0l-2.095-95.03
					l-59.7-1.632c-10.85-0.207-18.913-10.112-16.913-20.778l0.002-0.012c-0.002,0.012,0.579-14.93,0.579-14.93
					S185.367,240.81,190.7,241.336z"/>
				<path style="fill:#305883;" d="M245.682,370.285h8.925v5.357c0,0,30.566-1.891,30.882,7.563h-36.817
					c-1.651,0-2.989-1.338-2.989-2.989V370.285z"/>
			</g>
			<g>
				<path style="fill:#27345C;" d="M190.934,133.444c-0.389-4.408-2.305-8.54-5.966-11.208c-2.588-1.886-6.098-2.321-9.209-2.108
					c-1.852,0.127-5.257,0.924-6.588,2.302l0.628-0.314c-0.527,0.579-1.612,0.987-2.307,1.478c-0.934,0.66-1.79,1.47-2.327,2.499
					c-1.129,2.164-0.278,3.654,1.721,4.702c-1.34,3.668-0.619,9.575,4.116,10.056c0.3,0.031,1.053-0.152,1.313,0.01
					c0.373,0.233,0.774,1.458,0.998,1.857c0.68,1.215,1.24,2.278,2.454,3.061c1.978,1.275,4.534,2.432,6.907,2.106
					c4.361-0.599,8.831-3.419,8.579-8.399C191.152,137.481,191.11,135.449,190.934,133.444z"/>
			</g>
			
				<linearGradient id="SVGID_00000040562437231219793480000006315381340016619651_" gradientUnits="userSpaceOnUse" x1="161.7587" y1="203.2468" x2="214.7691" y2="203.2468">
				<stop  offset="0.0026" style="stop-color:#802634"/>
				<stop  offset="0.9948" style="stop-color:#CF4434"/>
			</linearGradient>
			<path style="fill:url(#SVGID_00000040562437231219793480000006315381340016619651_);" d="M212.581,206.165
				c-1.667,7.167-5.693,25.517-0.074,36.839c-13.883,8.973-27.59,13.33-45.535,11.1c0.709-14.647,2.063-48.907-2.119-63.102
				c-0.894-3.058-1.621-6.172-2.146-9.313c-0.525-3.141-0.848-6.319-0.94-9.507c-0.111-4.394,0.838-8.07,5.334-10.944
				c0.24-0.138,4.228-3.611,7.849-6.78c1.078-0.94,2.119-1.852,3.012-2.644c2.137,1.612,7.941,6.154,13.182,11.478
				c4.155,4.238,7.95,8.973,9.221,13.146c0,0,0.995-6.402-0.184-13.818c-0.304-1.907-0.755-3.887-1.4-5.84l1.704,0.884
				c0,0,0.129,0.037,0.368,0.129c2.202,0.866,13.523,6.264,13.91,25.803C214.856,188.312,213.714,201.255,212.581,206.165z"/>
			<path style="fill:#E5ABAA;" d="M200.365,176.438c-1.271-4.173-5.067-8.908-9.221-13.146c-5.242-5.324-11.045-9.866-13.182-11.478
				c0.774-0.672,1.437-1.253,1.935-1.695c0.221-3.602,0.516-8.337,0.654-8.761l12.326,2.331l-0.295,9.829l5.011,2.635l1.188,0.626
				c0.645,1.953,1.096,3.933,1.4,5.84C201.36,170.035,200.365,176.438,200.365,176.438z"/>
			<g>
				<path style="fill:#EEC8C7;" d="M169.683,134.228c-1.17-3.073-0.892-7.382,1.719-7.981c0.779-0.178,1.718-0.012,2.67,0.386
					c0.713-9.307,5.998-20.305,12.524-21.801c8.539-1.957,16.621,1.255,21.07,23.455c2.271,11.335-3.451,19.124-11.217,21.634
					c-6.221,2.01-14.621-3.807-19.136-10.55C174.383,138.962,171.167,138.126,169.683,134.228z"/>
				<g>
					<g>
						<g>
							<path style="fill:#27345C;" d="M198.955,135.284c0.041,0.006,0.084,0.007,0.127,0.002c1.076-0.128,2.523-0.414,2.684-1.424
								c0.223-1.403-3.001-5.626-4.198-6.179c-0.255-0.113-0.552-0.006-0.671,0.247c-0.116,0.252-0.006,0.551,0.246,0.669
								c1.692,0.782,3.692,4.694,3.625,5.105c0,0.004-0.134,0.381-1.804,0.579c-0.277,0.033-0.475,0.284-0.444,0.56
								C198.55,135.076,198.732,135.254,198.955,135.284z"/>
						</g>
					</g>
					<path style="fill:#27345C;" d="M188.829,128.932"/>
					<g>
						<g>
							<path style="fill:#27345C;" d="M186.225,124.926c0.217-0.013,0.418-0.149,0.502-0.365c1.327-3.396,4.427-2.413,4.56-2.371
								c0.3,0.099,0.623-0.063,0.725-0.363c0.099-0.301-0.064-0.626-0.366-0.725c-1.469-0.488-4.615-0.476-5.99,3.042
								c-0.115,0.295,0.031,0.628,0.327,0.743C186.063,124.918,186.144,124.93,186.225,124.926z"/>
						</g>
					</g>
					<g>
						<g>
							<path style="fill:#27345C;" d="M199.065,122.321c0.145,0.111,0.348,0.135,0.519,0.044c2.708-1.428,4.138,0.898,4.198,0.998
								c0.136,0.228,0.43,0.302,0.66,0.167c0.228-0.137,0.303-0.433,0.166-0.662c-0.666-1.117-2.67-2.836-5.475-1.357
								c-0.235,0.124-0.326,0.416-0.2,0.651C198.967,122.228,199.012,122.279,199.065,122.321z"/>
						</g>
					</g>
					<g>
						<g>
							<path style="fill:#27345C;" d="M200.153,138.57c-0.173-0.142-0.419-0.181-0.634-0.076c-3.377,1.631-5.027-1.279-5.096-1.404
								c-0.157-0.285-0.514-0.388-0.801-0.234c-0.285,0.157-0.39,0.517-0.232,0.803c0.766,1.396,3.146,3.588,6.644,1.899
								c0.293-0.142,0.417-0.495,0.273-0.789C200.269,138.688,200.216,138.623,200.153,138.57z"/>
						</g>
					</g>
					<path style="fill:#27345C;" d="M189.881,128.684c0.142,1.319,0.766,2.333,1.395,2.266c0.628-0.068,1.022-1.192,0.879-2.511
						c-0.142-1.319-0.767-2.333-1.395-2.265C190.132,126.241,189.738,127.365,189.881,128.684z"/>
					<path style="fill:#27345C;" d="M201.406,127.441c0.142,1.319,0.767,2.333,1.395,2.266c0.628-0.068,1.022-1.192,0.879-2.511
						c-0.142-1.319-0.767-2.333-1.395-2.265C201.657,124.997,201.263,126.122,201.406,127.441z"/>
				</g>
				<g>
					<path style="fill:#27345C;" d="M211.027,107.878c-0.061-1.988-1.343-6.295-4.126-4.607c0.297-2.395-2.514-5.212-4.476-6.102
						c-1.23-0.558-4.976-1.346-4.626,0.993c-1.977-2.628-6.755-2.567-9.662-2.567c-1.693,0-4.863-0.447-6.204,0.772
						c-1.76,1.6-0.182,3.412,1.426,4.003c-2.264-0.578-4.54-0.202-6.741,0.522c-2.093,0.689-5.543,3.658-1.711,4.678
						c-1.559,0.38-2.981,1.07-4.301,1.997c-1.816,1.276-4.473,2.669-5.615,4.599c-0.918,1.552-1.507,4.919-0.671,6.624
						c0.64,1.306,2.129,0.823,2.349,1.907c0.167,0.822-0.74,2.417-0.63,3.456c0.153,1.443,1.088,2.281,2.314,2.989
						c2.043,1.178,4.339,0.887,5.98-0.687l0.154,0.307c-0.436,2.443,2.137,8.074,5.156,8.603c2.265,0.397,3.723-1.519,3.902-3.529
						c0.087-0.974-0.014-1.829-0.341-2.734c-0.54-1.493-1.702-1.896-2.533-3.082c3.258-1.188,3.765-3.955,5.208-6.735
						c2.554,2.828,5.288,0.042,7.316-1.845c0.362,1.837,2.842,2.149,4.398,1.952c0.941-0.119,3.819-1.823,2.89-2.785
						c1.399,1.744,4.219,3.07,6.401,2.171c1.53-0.631,3.662-5.501,0.951-5.246C210.425,112.376,211.108,110.545,211.027,107.878z"/>
				</g>
			</g>
			<g>
				<g>
					<path style="fill:#27345C;" d="M257.039,219.201l1.846-1.586l-23.345-27.154c-0.438-0.51-1.206-0.568-1.716-0.13l0,0
						c-0.51,0.438-0.568,1.206-0.13,1.716L257.039,219.201z"/>
				</g>
				<path style="fill:#EEC8C7;" d="M256.107,210.623c-0.037,1.142-0.313,2.082-0.774,2.856c-0.424,0.709-1.004,1.29-1.704,1.76
					c-2.57,1.732-6.725,2.137-10.575,2.966c-1.511,0.322-3.086,0.212-4.606,0.525c-1.916,0.387-4.228,0.857-4.726,0.958
					c-2.672,0.58-18.866,2.607-27.01,2.607c-1.087,0-2.027-0.037-2.773-0.12c-2.321-0.23-4.542-0.571-6.605-0.967
					c-1.234-0.249-2.432-0.654-3.574-1.198c-5.26-2.441-9.359-7.416-11.598-10.649c-2.635-3.814-5.334-7.342-7.867-10.806
					c5.011-5.758,10.852-9.387,17.411-11.165c2.699,6.025,4.984,12.261,6.992,18.618c0.746,0.23,1.538,0.433,2.386,0.617
					c3.16,0.765,6.891,1.327,10.428,1.704c3.473,0.368,20.617,2.073,25.176,3.003c0.405,0.083,0.811,0.12,1.216,0.12
					c1.492,0,2.966-0.553,4.099-1.584c0.018-0.018,0.028-0.046,0.028-0.074c-0.046-0.138-0.074-0.276-0.101-0.405
					c-0.212-0.958-0.249-1.732-0.203-2.349c0.092-1.142,1.032-2.027,2.174-2.064l0.894-0.018l1.658-0.046l0.746-0.018
					c0.018,0,0.046-0.018,0.055-0.028c0.111-0.129,0.221-0.258,0.341-0.378c0.175-0.184,0.35-0.359,0.534-0.525
					c1.17-1.059,2.377-1.566,3.657-1.511c0.921-0.064,1.585,0.396,2.045,1.299C254.597,205.216,256.2,207.344,256.107,210.623z"/>
			</g>
			<path style="fill:#FFFFFF;" d="M200.365,176.438c-1.271-4.173-5.067-8.908-9.221-13.146c2.635,0.719,5.794,0.866,9.037-0.673
				C201.36,170.035,200.365,176.438,200.365,176.438z"/>
			<path style="fill:#FFFFFF;" d="M191.706,187.391c-6.559,1.778-13.387,6.641-18.399,12.399
				c-2.017-2.754-11.706-22.983-11.54-29.856c0.221-8.927,8.733-11.791,12.657-9.148c4.265,2.874,8.457,9.737,11.082,14.306
				c2.147,3.74,4.099,7.618,5.868,11.561C191.485,186.902,191.596,187.142,191.706,187.391z"/>
			<g>
				<path style="fill:#EEC8C7;" d="M281.762,147.247l-2.625,0.746c-0.617,7.287-2.801,10.723-4.182,11.902
					c-1.4,2.285-18.894,21.547-23.749,24.744c-1.759,1.179-3.519,2.22-5.186,3.132c-1.013,0.544-2.091,0.949-3.206,1.234
					c-5.094,1.327-10.852,0.203-14.288-0.765c-1.658-0.479-3.307-0.912-4.919-1.327c-0.24-6.771,2.543-12.409,5.269-16.241
					c3.15,1.778,6.255,3.666,9.304,5.656c0.663-0.276,1.336-0.59,2.036-0.949c2.653-1.29,5.601-3.049,8.3-4.827
					c2.653-1.75,19.576-12.51,22.155-13.919c-1.142-10.815,2.331-14.555,9.212-14.306c0.755,0.028,1.621,0.415,2.45,0.94
					C283.946,144.281,283.586,146.722,281.762,147.247z"/>
				<g>
					<g>
						
							<linearGradient id="SVGID_00000157300366786891390790000003465226799953887934_" gradientUnits="userSpaceOnUse" x1="170.5794" y1="119.9317" x2="186.9896" y2="119.9317" gradientTransform="matrix(-0.9384 -0.3456 -0.3456 0.9384 501.8984 82.4199)">
							<stop  offset="0.0081" style="stop-color:#D5D5DC"/>
							<stop  offset="0.1314" style="stop-color:#DCDCE2"/>
							<stop  offset="0.6743" style="stop-color:#F5F5F7"/>
							<stop  offset="1" style="stop-color:#FFFFFF"/>
						</linearGradient>
						<polygon style="fill:url(#SVGID_00000157300366786891390790000003465226799953887934_);" points="293.376,107.539 
							308.774,113.209 291.981,158.813 276.583,153.143 						"/>
						
							<rect x="292.426" y="111.734" transform="matrix(-0.9384 -0.3456 0.3456 -0.9384 540.1919 326.9995)" style="fill:#D78785;" width="13.634" height="7.232"/>
						
							<rect x="290.025" y="118.254" transform="matrix(-0.9384 -0.3455 0.3455 -0.9384 533.2867 338.8059)" style="fill:#CA605D;" width="13.634" height="7.233"/>
						
							<rect x="287.624" y="124.773" transform="matrix(-0.9384 -0.3456 0.3456 -0.9384 526.379 350.6152)" style="fill:#C5514E;" width="13.634" height="7.233"/>
						
							<rect x="285.224" y="131.292" transform="matrix(-0.9384 -0.3456 0.3456 -0.9384 519.4734 362.4219)" style="fill:#BE3C39;" width="13.634" height="7.233"/>
						
							<rect x="282.823" y="137.812" transform="matrix(-0.9384 -0.3456 0.3456 -0.9384 512.5667 374.23)" style="fill:#B5211E;" width="13.634" height="7.233"/>
						
							<rect x="282.703" y="147.217" transform="matrix(-0.9384 -0.3456 0.3456 -0.9384 508.2112 385.7121)" style="fill:#1B1464;" width="11.565" height="0.68"/>
						
							<rect x="281.662" y="150.044" transform="matrix(-0.9384 -0.3456 0.3456 -0.9384 505.2169 390.8311)" style="fill:#1B1464;" width="11.565" height="0.68"/>
					</g>
					<g>
						
							<linearGradient id="SVGID_00000074429147505746594480000014557692363782627225_" gradientUnits="userSpaceOnUse" x1="181.8104" y1="123.2983" x2="198.2199" y2="123.2983" gradientTransform="matrix(-0.9763 -0.2165 -0.2165 0.9763 494.6201 50.9479)">
							<stop  offset="0.0081" style="stop-color:#D5D5DC"/>
							<stop  offset="0.1314" style="stop-color:#DCDCE2"/>
							<stop  offset="0.6743" style="stop-color:#F5F5F7"/>
							<stop  offset="1" style="stop-color:#FFFFFF"/>
						</linearGradient>
						<polygon style="fill:url(#SVGID_00000074429147505746594480000014557692363782627225_);" points="279.666,104.687 
							295.685,108.24 285.163,155.684 269.143,152.132 						"/>
						<g>
							
								<rect x="279.71" y="108.025" transform="matrix(-0.9763 -0.2165 0.2165 -0.9763 542.0833 282.6752)" style="fill:#D793C9;" width="13.634" height="7.233"/>
							
								<rect x="278.206" y="114.807" transform="matrix(-0.9763 -0.2165 0.2165 -0.9763 537.642 295.7531)" style="fill:#CA6AB6;" width="13.634" height="7.232"/>
							
								<rect x="276.702" y="121.59" transform="matrix(-0.9763 -0.2165 0.2165 -0.9763 533.2008 308.8312)" style="fill:#C55BAF;" width="13.634" height="7.233"/>
							
								<rect x="275.197" y="128.372" transform="matrix(-0.9763 -0.2165 0.2165 -0.9763 528.7589 321.91)" style="fill:#BE45A6;" width="13.634" height="7.233"/>
							
								<rect x="273.693" y="135.155" transform="matrix(-0.9763 -0.2165 0.2165 -0.9763 524.3175 334.9883)" style="fill:#B5279A;" width="13.634" height="7.233"/>
						</g>
						
							<rect x="274.406" y="144.66" transform="matrix(-0.9763 -0.2165 0.2165 -0.9763 522.3341 347.2276)" style="fill:#1B1464;" width="11.565" height="0.68"/>
						
							<rect x="273.754" y="147.6" transform="matrix(-0.9763 -0.2165 0.2165 -0.9763 520.4088 352.8972)" style="fill:#1B1464;" width="11.565" height="0.68"/>
					</g>
					<g>
						
							<linearGradient id="SVGID_00000165931576741795870580000001762094295082008231_" gradientUnits="userSpaceOnUse" x1="192.6755" y1="127.346" x2="209.0858" y2="127.346" gradientTransform="matrix(-0.9987 -0.0516 -0.0516 0.9987 479.4431 11.9899)">
							<stop  offset="0.0081" style="stop-color:#D5D5DC"/>
							<stop  offset="0.1314" style="stop-color:#DCDCE2"/>
							<stop  offset="0.6743" style="stop-color:#F5F5F7"/>
							<stop  offset="1" style="stop-color:#FFFFFF"/>
						</linearGradient>
						<polygon style="fill:url(#SVGID_00000165931576741795870580000001762094295082008231_);" points="265.314,104.115 
							281.701,104.962 279.191,153.495 262.804,152.647 						"/>
						<g>
							
								<rect x="266.417" y="106.219" transform="matrix(-0.9987 -0.0517 0.0517 -0.9987 540.4293 233.6362)" style="fill:#9BC7D7;" width="13.634" height="7.233"/>
							
								<rect x="266.058" y="113.157" transform="matrix(-0.9987 -0.0516 0.0516 -0.9987 539.3547 247.4823)" style="fill:#72B1CA;" width="13.634" height="7.233"/>
							
								<rect x="265.699" y="120.095" transform="matrix(-0.9987 -0.0517 0.0517 -0.9987 538.2783 261.3325)" style="fill:#63AAC5;" width="13.634" height="7.233"/>
							
								<rect x="265.34" y="127.033" transform="matrix(-0.9987 -0.0516 0.0516 -0.9987 537.2039 275.1786)" style="fill:#4CA0BE;" width="13.634" height="7.233"/>
							
								<rect x="264.981" y="133.971" transform="matrix(-0.9987 -0.0517 0.0517 -0.9987 536.1274 289.0289)" style="fill:#2E92B5;" width="13.634" height="7.233"/>
						</g>
						
							<rect x="266.732" y="143.443" transform="matrix(-0.9987 -0.0516 0.0516 -0.9987 537.2378 301.4496)" style="fill:#1B1464;" width="11.565" height="0.68"/>
						
							<rect x="266.576" y="146.451" transform="matrix(-0.9987 -0.0516 0.0516 -0.9987 536.7729 307.4506)" style="fill:#1B1464;" width="11.565" height="0.68"/>
					</g>
				</g>
				<g>
					<path style="fill:#EEC8C7;" d="M270.654,153.538c0-1.335,0.03-2.622,0.208-3.946c0.15-1.123,0.414-2.228,0.761-3.302
						c0.251-0.778,0.538-2.198,1.242-2.727c1.619-1.215,2.176,1.39,2.224,2.494c0.065,1.509-0.37,3.034-0.778,4.473
						c-0.379,1.34-0.685,3.229-1.626,4.3"/>
				</g>
			</g>
		</g>
		<g>
			<path style="fill:#27345C;" d="M166.355,223.14c-13.253,0.394-23.629,11.616-23.629,24.875v21.476
				c0,2.909,2.358,5.267,5.267,5.267l0,0c2.909,0,5.267-2.358,5.267-5.267v-21.986c0-7.637,6.206-13.842,13.834-13.842
				c7.628,0,13.842,6.206,13.842,13.842v21.986c0,2.909,2.358,5.267,5.267,5.267l0,0c2.909,0,5.267-2.358,5.267-5.267v-21.986
				C191.469,233.821,180.129,222.731,166.355,223.14z"/>
		</g>
	</g>
	<g>
		<g>
			<g>
				<rect x="334.986" y="182.474" style="fill:#8B2531;" width="13.563" height="51.942"/>
			</g>
			<g>
				
					<linearGradient id="SVGID_00000136400524051467328630000015516543600218872758_" gradientUnits="userSpaceOnUse" x1="362.1127" y1="208.4449" x2="375.676" y2="208.4449">
					<stop  offset="0.2331" style="stop-color:#CF4434"/>
					<stop  offset="0.6199" style="stop-color:#DF8855"/>
					<stop  offset="0.9929" style="stop-color:#EDC572"/>
				</linearGradient>
				
					<rect x="362.113" y="182.474" style="fill:url(#SVGID_00000136400524051467328630000015516543600218872758_);" width="13.563" height="51.942"/>
				<rect x="364.511" y="185.618" style="fill:#FFFFFF;" width="8.766" height="45.654"/>
				<path style="fill:#543530;" d="M371.288,190.105c0,1.322-1.072,2.394-2.394,2.394s-2.394-1.072-2.394-2.394
					c0-1.322,1.072-2.394,2.394-2.394S371.288,188.783,371.288,190.105z"/>
				<g>
					<path style="fill:#543530;" d="M371.734,196.689h-5.679c-0.312,0-0.567-0.255-0.567-0.567l0,0c0-0.312,0.255-0.567,0.567-0.567
						h5.679c0.312,0,0.567,0.255,0.567,0.567l0,0C372.301,196.434,372.046,196.689,371.734,196.689z"/>
					<path style="fill:#543530;" d="M371.734,198.727h-5.679c-0.312,0-0.567-0.255-0.567-0.567l0,0c0-0.312,0.255-0.567,0.567-0.567
						h5.679c0.312,0,0.567,0.255,0.567,0.567l0,0C372.301,198.471,372.046,198.727,371.734,198.727z"/>
					<path style="fill:#543530;" d="M371.734,200.764h-5.679c-0.312,0-0.567-0.255-0.567-0.568l0,0c0-0.312,0.255-0.567,0.567-0.567
						h5.679c0.312,0,0.567,0.255,0.567,0.567l0,0C372.301,200.509,372.046,200.764,371.734,200.764z"/>
				</g>
			</g>
			<g>
				
					<linearGradient id="SVGID_00000115486042614190604230000017409044898935845251_" gradientUnits="userSpaceOnUse" x1="348.5492" y1="208.4449" x2="362.1127" y2="208.4449">
					<stop  offset="0.0162" style="stop-color:#D86247"/>
					<stop  offset="0.5194" style="stop-color:#A63B39"/>
					<stop  offset="0.7792" style="stop-color:#8B2531"/>
				</linearGradient>
				
					<rect x="348.549" y="182.474" style="fill:url(#SVGID_00000115486042614190604230000017409044898935845251_);" width="13.564" height="51.942"/>
				<rect x="350.948" y="185.618" style="fill:#FFFFFF;" width="8.766" height="45.654"/>
				<path style="fill:#543530;" d="M357.725,190.105c0,1.322-1.072,2.394-2.394,2.394s-2.394-1.072-2.394-2.394
					c0-1.322,1.072-2.394,2.394-2.394S357.725,188.783,357.725,190.105z"/>
				<g>
					<path style="fill:#543530;" d="M358.171,196.689h-5.679c-0.312,0-0.567-0.255-0.567-0.567l0,0c0-0.312,0.255-0.567,0.567-0.567
						h5.679c0.312,0,0.568,0.255,0.568,0.567l0,0C358.738,196.434,358.483,196.689,358.171,196.689z"/>
					<path style="fill:#543530;" d="M358.171,198.727h-5.679c-0.312,0-0.567-0.255-0.567-0.567l0,0c0-0.312,0.255-0.567,0.567-0.567
						h5.679c0.312,0,0.568,0.255,0.568,0.567l0,0C358.738,198.471,358.483,198.727,358.171,198.727z"/>
					<path style="fill:#543530;" d="M358.171,200.764h-5.679c-0.312,0-0.567-0.255-0.567-0.568l0,0c0-0.312,0.255-0.567,0.567-0.567
						h5.679c0.312,0,0.568,0.255,0.568,0.567l0,0C358.738,200.509,358.483,200.764,358.171,200.764z"/>
				</g>
			</g>
		</g>
		<g>
			<g>
				
					<linearGradient id="SVGID_00000013161754405710011380000013204202813650073231_" gradientUnits="userSpaceOnUse" x1="188.2942" y1="396.0674" x2="180.9606" y2="244.5067">
					<stop  offset="0" style="stop-color:#8495B8"/>
					<stop  offset="0.1493" style="stop-color:#B2BDD3"/>
					<stop  offset="0.306" style="stop-color:#DCE1EB"/>
					<stop  offset="0.4294" style="stop-color:#F5F7F9"/>
					<stop  offset="0.5032" style="stop-color:#FFFFFF"/>
					<stop  offset="1" style="stop-color:#8495B8"/>
				</linearGradient>
				<path style="fill:url(#SVGID_00000013161754405710011380000013204202813650073231_);" d="M208.712,250.117v141.709
					c0,2.1-1.879,3.703-3.961,3.372l-39.934-6.338l0,0c-2.653-0.419-4.606-2.706-4.606-5.391V245.511h43.895v4.606h-39.289v134.081
					l39.289,6.237V250.117H208.712z"/>
				
					<linearGradient id="SVGID_00000183218135365343619510000002714719480669651853_" gradientUnits="userSpaceOnUse" x1="258.0497" y1="253.4803" x2="257.1051" y2="233.958">
					<stop  offset="0.0097" style="stop-color:#8495B8"/>
					<stop  offset="0.3535" style="stop-color:#B6B8C9"/>
					<stop  offset="0.7792" style="stop-color:#F9E6E0"/>
				</linearGradient>
				
					<rect x="204.106" y="245.511" style="fill:url(#SVGID_00000183218135365343619510000002714719480669651853_);" width="107.339" height="4.606"/>
			</g>
			<g>
				
					<linearGradient id="SVGID_00000045613603100393441210000002657267503850394240_" gradientUnits="userSpaceOnUse" x1="117.7929" y1="247.8159" x2="336.2194" y2="247.8159">
					<stop  offset="0" style="stop-color:#29A9E0"/>
					<stop  offset="0.1872" style="stop-color:#29A5DB"/>
					<stop  offset="0.4024" style="stop-color:#2A99CD"/>
					<stop  offset="0.6316" style="stop-color:#2C85B6"/>
					<stop  offset="0.8689" style="stop-color:#2F6996"/>
					<stop  offset="0.9896" style="stop-color:#305883"/>
				</linearGradient>
				<path style="fill:url(#SVGID_00000045613603100393441210000002657267503850394240_);" d="M369.335,240.64
					c0,7.895-6.467,14.352-14.362,14.352H165.26c-3.952,0-7.535-1.612-10.133-4.219c-2.607-2.598-4.219-6.19-4.219-10.133H369.335z"
					/>
				
					<linearGradient id="SVGID_00000021803944149951314830000006263093359741623955_" gradientUnits="userSpaceOnUse" x1="282.1653" y1="237.1923" x2="282.1653" y2="262.103">
					<stop  offset="0.0104" style="stop-color:#305883"/>
					<stop  offset="0.1311" style="stop-color:#2F6996"/>
					<stop  offset="0.3684" style="stop-color:#2C85B6"/>
					<stop  offset="0.5976" style="stop-color:#2A99CD"/>
					<stop  offset="0.8128" style="stop-color:#29A5DB"/>
					<stop  offset="1" style="stop-color:#29A9E0"/>
				</linearGradient>
				<path style="fill:url(#SVGID_00000021803944149951314830000006263093359741623955_);" d="M369.335,240.64
					c0,7.895-5.161,14.352-11.463,14.352h-151.42c-3.154,0-6.014-1.612-8.088-4.219c-2.081-2.598-3.368-6.19-3.368-10.133H369.335z"
					/>
				
					<linearGradient id="SVGID_00000112603070187768844550000006166859731367710131_" gradientUnits="userSpaceOnUse" x1="41.0245" y1="237.3627" x2="286.7131" y2="237.3627">
					<stop  offset="0" style="stop-color:#29A9E0"/>
					<stop  offset="0.1872" style="stop-color:#29A5DB"/>
					<stop  offset="0.4024" style="stop-color:#2A99CD"/>
					<stop  offset="0.6316" style="stop-color:#2C85B6"/>
					<stop  offset="0.8689" style="stop-color:#2F6996"/>
					<stop  offset="0.9896" style="stop-color:#305883"/>
				</linearGradient>
				<path style="fill:url(#SVGID_00000112603070187768844550000006166859731367710131_);" d="M141.449,241.536H378.79
					c2.296,0,4.174-1.878,4.174-4.174l0,0c0-2.296-1.878-4.174-4.174-4.174H141.449c-2.296,0-4.174,1.878-4.174,4.174l0,0
					C137.275,239.658,139.153,241.536,141.449,241.536z"/>
				
					<linearGradient id="SVGID_00000139992362628486489950000014393985267290249873_" gradientUnits="userSpaceOnUse" x1="182.1625" y1="237.3627" x2="315.7498" y2="237.3627">
					<stop  offset="0.0104" style="stop-color:#305883"/>
					<stop  offset="0.1311" style="stop-color:#2F6996"/>
					<stop  offset="0.3684" style="stop-color:#2C85B6"/>
					<stop  offset="0.5976" style="stop-color:#2A99CD"/>
					<stop  offset="0.8128" style="stop-color:#29A5DB"/>
					<stop  offset="1" style="stop-color:#29A9E0"/>
				</linearGradient>
				<path style="fill:url(#SVGID_00000139992362628486489950000014393985267290249873_);" d="M191.325,241.536h188.327
					c1.822,0,3.312-1.878,3.312-4.174l0,0c0-2.296-1.49-4.174-3.312-4.174H191.325c-1.822,0-3.312,1.878-3.312,4.174l0,0
					C188.013,239.658,189.503,241.536,191.325,241.536z"/>
			</g>
		</g>
		<g>
			
				<linearGradient id="SVGID_00000062904017778896442660000012323555168622525366_" gradientUnits="userSpaceOnUse" x1="286.7634" y1="222.7002" x2="288.8745" y2="201.3402">
				<stop  offset="0.2331" style="stop-color:#CF4434"/>
				<stop  offset="0.6199" style="stop-color:#DF8855"/>
				<stop  offset="0.9929" style="stop-color:#EDC572"/>
			</linearGradient>
			<polygon style="fill:url(#SVGID_00000062904017778896442660000012323555168622525366_);" points="236.271,233.264 
				262.697,206.837 337.78,206.837 311.445,232.915 			"/>
			
				<linearGradient id="SVGID_00000078021574596365945720000002337711691465410467_" gradientUnits="userSpaceOnUse" x1="228.6177" y1="218.013" x2="262.6972" y2="218.013">
				<stop  offset="0.2331" style="stop-color:#CF4434"/>
				<stop  offset="0.6199" style="stop-color:#DF8855"/>
				<stop  offset="0.9929" style="stop-color:#EDC572"/>
			</linearGradient>
			<polygon style="fill:url(#SVGID_00000078021574596365945720000002337711691465410467_);" points="258.622,202.762 
				262.697,206.837 236.271,233.264 228.618,233.264 			"/>
			
				<linearGradient id="SVGID_00000011732446195781604070000012232263004377634462_" gradientUnits="userSpaceOnUse" x1="258.6223" y1="204.7999" x2="337.7796" y2="204.7999">
				<stop  offset="0.2331" style="stop-color:#CF4434"/>
				<stop  offset="0.6199" style="stop-color:#DF8855"/>
				<stop  offset="0.9929" style="stop-color:#EDC572"/>
			</linearGradient>
			<polygon style="fill:url(#SVGID_00000011732446195781604070000012232263004377634462_);" points="258.622,202.762 
				262.697,206.837 337.78,206.837 333.705,202.762 			"/>
			
				<linearGradient id="SVGID_00000109736236968244268470000000658981648801270927_" gradientUnits="userSpaceOnUse" x1="246.0135" y1="235.7145" x2="261.8443" y2="220.4222">
				<stop  offset="0.2331" style="stop-color:#CF4434"/>
				<stop  offset="0.6199" style="stop-color:#DF8855"/>
				<stop  offset="0.9929" style="stop-color:#EDC572"/>
			</linearGradient>
			<polygon style="fill:url(#SVGID_00000109736236968244268470000000658981648801270927_);" points="252.155,217.38 
				261.198,233.449 236.271,233.162 			"/>
			
				<linearGradient id="SVGID_00000178913534488812162000000000706987341340247684_" gradientUnits="userSpaceOnUse" x1="250.2163" y1="225.3818" x2="341.199" y2="225.3818">
				<stop  offset="0.0878" style="stop-color:#CF4434"/>
				<stop  offset="0.5486" style="stop-color:#DF8855"/>
				<stop  offset="0.9929" style="stop-color:#EDC572"/>
			</linearGradient>
			<polygon style="fill:url(#SVGID_00000178913534488812162000000000706987341340247684_);" points="252.155,217.38 327.133,217.38 
				343.137,233.384 261.198,233.384 			"/>
		</g>
		<g>
			<g>
				
					<rect x="224.62" y="198.359" transform="matrix(0.9883 -0.1526 0.1526 0.9883 -29.044 36.8802)" style="fill:#CF4434;" width="2.125" height="18.496"/>
				
					<rect x="233.797" y="196.942" transform="matrix(-0.9883 -0.1526 0.1526 -0.9883 435.4968 445.8101)" style="fill:#6CAFC8;" width="2.125" height="18.496"/>
				
					<rect x="229.51" y="194.284" transform="matrix(-1 -1.224647e-16 1.224647e-16 -1 461.3756 409.066)" style="fill:#E9AF46;" width="2.355" height="20.497"/>
			</g>
			
				<linearGradient id="SVGID_00000167392555828299674340000006744845219080001422_" gradientUnits="userSpaceOnUse" x1="221.8345" y1="221.2296" x2="238.7075" y2="221.2296">
				<stop  offset="0" style="stop-color:#27345C"/>
				<stop  offset="0.1575" style="stop-color:#2B456E"/>
				<stop  offset="0.3494" style="stop-color:#2F537E"/>
				<stop  offset="0.5025" style="stop-color:#305883"/>
				<stop  offset="0.6645" style="stop-color:#2F537E"/>
				<stop  offset="0.8583" style="stop-color:#2C466F"/>
				<stop  offset="1" style="stop-color:#283860"/>
			</linearGradient>
			
				<rect x="221.834" y="209.075" style="fill:url(#SVGID_00000167392555828299674340000006744845219080001422_);" width="16.873" height="24.309"/>
		</g>
	</g>
</g>
<g id="DESIGNED_BY_FREEPIK">
	<g>
		<g>
			<g id="XMLID_29_">
				<g id="XMLID_48_">
					<path id="XMLID_56_" style="fill:#1D262D;" d="M260.104,465.465c-0.432,0.443-0.803,0.931-1.108,1.453l-0.465-0.241
						c-0.067-0.298-0.349-0.503-0.659-0.466c-0.331,0.039-0.568,0.339-0.529,0.67c0.039,0.331,0.339,0.568,0.67,0.529
						c0.065-0.008,0.127-0.026,0.183-0.052l0.452,0.234c-0.251,0.554-0.433,1.139-0.539,1.744l0.746,0.132
						c0.23-1.306,0.85-2.507,1.792-3.473L260.104,465.465z"/>
					<path id="XMLID_55_" style="fill:#1D262D;" d="M265.591,463.163c-0.171,0-0.341,0.006-0.51,0.017l-0.074-0.626
						c0.188-0.149,0.296-0.389,0.266-0.645c-0.046-0.393-0.402-0.674-0.795-0.628c-0.393,0.046-0.674,0.402-0.628,0.795
						c0.03,0.254,0.189,0.461,0.404,0.564l0.074,0.624c-0.714,0.116-1.403,0.332-2.06,0.646l0.327,0.684
						c0.934-0.447,1.942-0.673,2.995-0.673c0.496,0,0.993,0.053,1.475,0.158l0.161-0.741
						C266.692,463.222,266.142,463.163,265.591,463.163z"/>
					<path id="XMLID_54_" style="fill:#1D262D;" d="M272.194,465.711c0.331-0.04,0.566-0.341,0.525-0.672
						c-0.04-0.331-0.341-0.566-0.672-0.526c-0.309,0.038-0.535,0.304-0.53,0.609l-0.416,0.363c-0.418-0.43-0.889-0.813-1.408-1.139
						l-0.404,0.641c1.134,0.715,2.021,1.726,2.563,2.925l0.691-0.313c-0.251-0.554-0.568-1.072-0.942-1.545l0.402-0.351
						C272.064,465.716,272.128,465.719,272.194,465.711z"/>
					<path id="XMLID_53_" style="fill:#1D262D;" d="M265.044,473.372c-0.386,0.023-0.775,0.035-1.157,0.035
						c-0.88,0-1.733-0.061-2.478-0.179c-0.39-0.062-0.846-0.155-1.27-0.292c1.046,1.861,3.069,3.125,5.388,3.125
						c2.855,0,5.262-1.916,5.95-4.504c-0.682,0.449-1.505,0.825-2.459,1.123C267.838,473.047,266.463,473.286,265.044,473.372z"/>
					<path id="XMLID_49_" style="fill:#1D262D;" d="M265.591,464.68c-3.352,0-6.079,2.666-6.079,5.943
						c0,0.426,0.046,0.849,0.137,1.261c0.673,0.483,2.706,0.89,5.348,0.731c2.88-0.173,5.297-0.957,6.672-2.159
						c-0.005-0.195-0.021-0.39-0.045-0.582C271.243,466.913,268.65,464.68,265.591,464.68z M263.432,471.194
						c-1.02,0-1.85-0.83-1.85-1.85c0-1.02,0.83-1.85,1.85-1.85s1.85,0.83,1.85,1.85
						C265.282,470.365,264.452,471.194,263.432,471.194z M268.169,470.286c-0.75,0-1.36-0.61-1.36-1.36s0.61-1.361,1.36-1.361
						c0.75,0,1.361,0.61,1.361,1.361S268.92,470.286,268.169,470.286z"/>
				</g>
				<path id="XMLID_46_" style="fill:#1D262D;" d="M281.595,466.547c-0.295-0.116-0.806-0.309-1.383-0.237
					c-0.551,0.069-0.844,0.341-0.844,1.007v0.866h2.228v1.717h-2.228v5.455h-1.932v-5.455h-1.34v-1.717h1.34v-0.888
					c0-1.68,0.896-2.783,2.568-2.783c0.643,0,1.157,0.122,1.59,0.308L281.595,466.547z"/>
				<path id="XMLID_44_" style="fill:#1D262D;" d="M286.297,469.879c-0.177-0.03-0.357-0.046-0.526-0.046
					c-0.896,0-1.51,0.548-1.51,1.614v3.908h-1.932v-7.172h1.873v0.785c0.451-0.673,1.14-0.977,2.021-0.977
					c0.414,0,0.848,0.128,1.094,0.337L286.297,469.879z"/>
				<path id="XMLID_41_" style="fill:#1D262D;" d="M293.965,471.757c0,0.222-0.015,0.489-0.037,0.651h-5.085
					c0.207,1.036,0.933,1.488,1.843,1.488c0.622,0,1.295-0.252,1.813-0.688l1.132,1.243c-0.814,0.748-1.85,1.088-3.057,1.088
					c-2.198,0-3.723-1.495-3.723-3.753c0-2.258,1.48-3.797,3.627-3.797C292.544,467.99,293.957,469.522,293.965,471.757z
					 M288.85,471.091h3.175c-0.177-0.918-0.733-1.436-1.561-1.436C289.553,469.655,289.021,470.203,288.85,471.091z"/>
				<path id="XMLID_38_" style="fill:#1D262D;" d="M301.618,471.757c0,0.222-0.015,0.489-0.037,0.651h-5.085
					c0.207,1.036,0.932,1.488,1.843,1.488c0.622,0,1.295-0.252,1.813-0.688l1.132,1.243c-0.814,0.748-1.85,1.088-3.057,1.088
					c-2.198,0-3.723-1.495-3.723-3.753c0-2.258,1.48-3.797,3.627-3.797C300.197,467.99,301.611,469.522,301.618,471.757z
					 M296.504,471.091h3.175c-0.178-0.918-0.733-1.436-1.562-1.436C297.207,469.655,296.674,470.203,296.504,471.091z"/>
				<path id="XMLID_35_" style="fill:#1D262D;" d="M309.964,471.764c0,2.154-1.495,3.775-3.471,3.775
					c-0.962,0-1.643-0.378-2.109-0.933v3.708h-1.924v-10.133h1.887v0.792c0.466-0.585,1.155-0.984,2.139-0.984
					C308.469,467.99,309.964,469.61,309.964,471.764z M304.287,471.764c0,1.132,0.747,1.976,1.843,1.976
					c1.14,0,1.85-0.881,1.85-1.976c0-1.095-0.71-1.976-1.85-1.976C305.034,469.788,304.287,470.632,304.287,471.764z"/>
				<path id="XMLID_32_" style="fill:#1D262D;" d="M313.067,465.836c0,0.696-0.54,1.229-1.236,1.229
					c-0.696,0-1.229-0.533-1.229-1.229c0-0.696,0.533-1.243,1.229-1.243C312.527,464.592,313.067,465.14,313.067,465.836z
					 M312.808,475.354h-1.932v-7.172h1.932V475.354z"/>
				<path id="XMLID_30_" style="fill:#1D262D;" d="M316.032,470.736l2.702-2.554h2.368l-3.479,3.375l3.501,3.797h-2.376
					l-2.716-2.901v2.901H314.1v-10.658h1.932V470.736z"/>
			</g>
			<g>
				<path style="fill:#1D262D;" d="M184.412,475.289v-1.055c-0.527,0.718-1.391,1.23-2.387,1.23c-1.846,0-3.149-1.406-3.149-3.706
					c0-2.256,1.289-3.721,3.149-3.721c0.952,0,1.816,0.469,2.387,1.245v-3.765h1.099v9.77H184.412z M184.412,473.37v-3.208
					c-0.395-0.615-1.245-1.143-2.124-1.143c-1.421,0-2.27,1.172-2.27,2.739c0,1.567,0.85,2.724,2.27,2.724
					C183.167,474.483,184.017,473.986,184.412,473.37z"/>
				<path style="fill:#1D262D;" d="M186.932,471.744c0-2.051,1.465-3.706,3.486-3.706c2.139,0,3.398,1.67,3.398,3.794v0.279h-5.727
					c0.088,1.333,1.025,2.446,2.549,2.446c0.805,0,1.626-0.322,2.182-0.894l0.527,0.718c-0.703,0.703-1.655,1.084-2.812,1.084
					C188.44,475.465,186.932,473.956,186.932,471.744z M190.403,468.947c-1.509,0-2.256,1.274-2.314,2.358h4.643
					C192.717,470.25,192.014,468.947,190.403,468.947z"/>
				<path style="fill:#1D262D;" d="M194.607,474.351l0.571-0.791c0.469,0.542,1.362,1.011,2.329,1.011
					c1.084,0,1.67-0.513,1.67-1.216c0-1.714-4.38-0.659-4.38-3.281c0-1.098,0.952-2.036,2.636-2.036
					c1.201,0,2.051,0.454,2.622,1.026l-0.513,0.762c-0.425-0.513-1.201-0.894-2.109-0.894c-0.967,0-1.567,0.483-1.567,1.113
					c0,1.552,4.38,0.527,4.38,3.281c0,1.187-0.952,2.138-2.783,2.138C196.306,475.465,195.324,475.113,194.607,474.351z"/>
				<path style="fill:#1D262D;" d="M201.477,466.471c0-0.41,0.337-0.747,0.732-0.747c0.41,0,0.747,0.337,0.747,0.747
					c0,0.41-0.337,0.732-0.747,0.732C201.814,467.203,201.477,466.881,201.477,466.471z M201.667,475.289v-7.075h1.099v7.075
					H201.667z"/>
				<path style="fill:#1D262D;" d="M204.582,477.105l0.556-0.82c0.586,0.703,1.289,0.967,2.3,0.967c1.172,0,2.27-0.571,2.27-2.124
					v-1.011c-0.513,0.718-1.377,1.26-2.373,1.26c-1.845,0-3.149-1.377-3.149-3.662c0-2.27,1.289-3.677,3.149-3.677
					c0.952,0,1.802,0.469,2.373,1.245v-1.069h1.099v6.87c0,2.344-1.641,3.076-3.369,3.076
					C206.237,478.16,205.416,477.926,204.582,477.105z M209.708,473.253v-3.091c-0.381-0.615-1.23-1.143-2.109-1.143
					c-1.421,0-2.27,1.128-2.27,2.695c0,1.553,0.849,2.695,2.27,2.695C208.478,474.41,209.327,473.868,209.708,473.253z"/>
				<path style="fill:#1D262D;" d="M217.413,475.289v-4.629c0-1.245-0.63-1.641-1.582-1.641c-0.864,0-1.685,0.527-2.095,1.099v5.17
					h-1.099v-7.075h1.099v1.025c0.498-0.586,1.464-1.201,2.519-1.201c1.48,0,2.256,0.747,2.256,2.285v4.966H217.413z"/>
				<path style="fill:#1D262D;" d="M219.932,471.744c0-2.051,1.465-3.706,3.486-3.706c2.139,0,3.399,1.67,3.399,3.794v0.279h-5.727
					c0.088,1.333,1.025,2.446,2.549,2.446c0.806,0,1.626-0.322,2.183-0.894l0.527,0.718c-0.703,0.703-1.655,1.084-2.812,1.084
					C221.441,475.465,219.932,473.956,219.932,471.744z M223.404,468.947c-1.509,0-2.256,1.274-2.314,2.358h4.643
					C225.718,470.25,225.015,468.947,223.404,468.947z"/>
				<path style="fill:#1D262D;" d="M233.35,475.289v-1.055c-0.527,0.718-1.392,1.23-2.388,1.23c-1.846,0-3.149-1.406-3.149-3.706
					c0-2.256,1.289-3.721,3.149-3.721c0.952,0,1.817,0.469,2.388,1.245v-3.765h1.098v9.77H233.35z M233.35,473.37v-3.208
					c-0.396-0.615-1.245-1.143-2.124-1.143c-1.421,0-2.27,1.172-2.27,2.739c0,1.567,0.849,2.724,2.27,2.724
					C232.105,474.483,232.954,473.986,233.35,473.37z"/>
				<path style="fill:#1D262D;" d="M239.692,475.289v-9.77h1.098v3.765c0.572-0.776,1.421-1.245,2.388-1.245
					c1.845,0,3.149,1.465,3.149,3.721c0,2.299-1.304,3.706-3.149,3.706c-0.996,0-1.86-0.513-2.388-1.23v1.055H239.692z
					 M242.899,474.483c1.436,0,2.286-1.157,2.286-2.724c0-1.568-0.85-2.739-2.286-2.739c-0.864,0-1.728,0.527-2.109,1.143v3.208
					C241.171,473.986,242.035,474.483,242.899,474.483z"/>
				<path style="fill:#1D262D;" d="M247.528,477.061c0.161,0.073,0.425,0.117,0.601,0.117c0.483,0,0.805-0.161,1.055-0.747
					l0.469-1.069l-2.959-7.148h1.187l2.358,5.8l2.344-5.8h1.201l-3.545,8.51c-0.425,1.025-1.143,1.421-2.08,1.435
					c-0.234,0-0.601-0.044-0.805-0.103L247.528,477.061z"/>
			</g>
		</g>
	</g>
</g>
</svg>
